<svg width="24" height="24" viewBox="0 0 24 24" fill="none" xmlns="http://www.w3.org/2000/svg">
<path d="M18.6735 10.4794C18.8221 10.4854 18.9627 10.5486 19.0658 10.6558C19.1689 10.7631 19.2264 10.9061 19.2264 11.0549C19.2264 11.2036 19.1689 11.3466 19.0658 11.4539C18.9627 11.5612 18.8221 11.6244 18.6735 11.6303H17.0718V12.657H18.6735C18.7509 12.6539 18.8281 12.6665 18.9004 12.694C18.9728 12.7215 19.0389 12.7633 19.0948 12.817C19.1506 12.8706 19.195 12.935 19.2254 13.0062C19.2557 13.0775 19.2714 13.1541 19.2714 13.2315C19.2714 13.309 19.2557 13.3856 19.2254 13.4568C19.195 13.5281 19.1506 13.5925 19.0948 13.6461C19.0389 13.6998 18.9728 13.7416 18.9004 13.7691C18.8281 13.7966 18.7509 13.8091 18.6735 13.8061H16.4959C16.3441 13.8051 16.1988 13.7442 16.0917 13.6367C15.9845 13.5292 15.9241 13.3838 15.9237 13.232V8.87774C15.9237 8.56287 16.181 8.30277 16.4986 8.30277H18.6762C18.8287 8.30313 18.9748 8.36405 19.0824 8.47214C19.19 8.58022 19.2502 8.72661 19.2498 8.87911C19.2495 9.0316 19.1885 9.1777 19.0804 9.28527C18.9724 9.39284 18.826 9.45307 18.6735 9.45271H17.0718V10.4794H18.6735V10.4794ZM15.1552 13.232C15.1545 13.3842 15.0935 13.5299 14.9855 13.6371C14.8776 13.7444 14.7315 13.8045 14.5793 13.8042C14.4892 13.8062 14.3998 13.7865 14.3188 13.7468C14.2379 13.7071 14.1676 13.6485 14.1139 13.5761L11.8843 10.5488V13.232C11.8742 13.3773 11.8094 13.5133 11.703 13.6127C11.5965 13.7121 11.4563 13.7673 11.3107 13.7673C11.165 13.7673 11.0248 13.7121 10.9184 13.6127C10.8119 13.5133 10.7471 13.3773 10.7371 13.232V8.87774C10.7368 8.72629 10.7966 8.58092 10.9034 8.47348C11.0101 8.36605 11.1551 8.30532 11.3066 8.30459C11.4845 8.30459 11.6488 8.39951 11.7583 8.53641L14.0053 11.5755V8.87774C14.0053 8.56287 14.2626 8.30277 14.5802 8.30277C14.8951 8.30277 15.1552 8.56287 15.1552 8.87774V13.232V13.232ZM9.91569 13.232C9.91496 13.3843 9.854 13.5302 9.74611 13.6378C9.63821 13.7453 9.49215 13.8058 9.3398 13.8061C9.18802 13.8051 9.04275 13.7442 8.93559 13.6367C8.82843 13.5292 8.76805 13.3838 8.76757 13.232V8.87774C8.76757 8.56287 9.02494 8.30277 9.34254 8.30277C9.65832 8.30277 9.91569 8.56287 9.91569 8.87774V13.232V13.232ZM7.66509 13.8061H5.4875C5.33546 13.8051 5.18991 13.7443 5.08232 13.6369C4.97472 13.5295 4.91373 13.384 4.91253 13.232V8.87774C4.91253 8.56287 5.17264 8.30277 5.4875 8.30277C5.80511 8.30277 6.06247 8.56287 6.06247 8.87774V12.657H7.66509C7.8135 12.6629 7.95386 12.7261 8.05677 12.8332C8.15968 12.9402 8.21716 13.083 8.21716 13.2315C8.21716 13.3801 8.15968 13.5228 8.05677 13.6299C7.95386 13.737 7.8135 13.8001 7.66509 13.8061M22.9036 10.891C22.9036 5.9892 17.989 2 11.9518 2C5.91462 2 1 5.9892 1 10.891C1 15.2818 4.89702 18.9607 10.1585 19.6598C10.5153 19.7346 11.0008 19.8953 11.124 20.1983C11.2336 20.473 11.1961 20.8973 11.1587 21.1839L11.009 22.1148C10.968 22.3895 10.79 23.1972 11.9664 22.7035C13.1446 22.2116 18.2783 18.9817 20.5782 16.3377C22.1516 14.6137 22.9036 12.8478 22.9036 10.891Z" fill="#8A8A8B"/>
</svg>
