<svg width="48" height="48" viewBox="0 0 48 48" fill="none" xmlns="http://www.w3.org/2000/svg">
<path d="M40 40C37.22 40 34.44 39.06 32 37.34C27.12 40.76 20.88 40.76 16 37.34C13.56 39.06 10.78 40 8 40H4V44H8C10.74 44 13.48 43.3 16 42C21 44.6 27 44.6 32 42C34.52 43.3 37.24 44 40 44H44V40H40ZM41.56 38H40C37.64 38 35.28 37.2 33.16 35.7L32 34.9L30.84 35.7C28.78 37.14 26.42 37.9 24 37.9C21.54 37.9 19.18 37.14 17.12 35.7L16 34.9L14.86 35.7C12.72 37.2 10.36 38 8 38H6.44C7.5 35.08 11.16 30 24 30C28 30 30 30.48 30 30.48C31.36 27.74 33.66 21.54 32 13.64L34.12 15.06C34.78 17.92 36 23.5 33.6 31.3C38.86 33 40.84 36 41.56 38M44 15.18C42.42 13 40 11.42 37.16 11.06C37.4 11.34 37.62 11.66 37.84 12C38.9796 13.8199 39.5071 15.9567 39.3451 18.0979C39.1832 20.239 38.3404 22.2722 36.94 23.9C38.12 21 38 17.58 36.16 14.72C36 14.56 35.92 14.4 35.8 14.22C35 13.06 33.92 12.12 32.76 11.44C28.7 12.74 25.76 16.54 25.76 21C25.76 22.06 25.92 23.06 26.2 24C25 22.34 24.32 20.34 24.32 18.14C24.32 14.82 25.92 11.9 28.4 10.06C26.32 9.90001 24.18 10.36 22.28 11.56C21.4 12.1 20.64 12.76 20 13.52C20.78 11.64 22.1 10 24 8.80001C26.0082 7.50833 28.4223 7.00273 30.78 7.38001C30.184 6.5534 29.4697 5.81888 28.66 5.20001C27.84 4.58001 26.94 4.10001 26 3.76001C28 3.82001 30.08 4.48001 31.82 5.78001C32.7 6.44001 33.4 7.24001 34 8.10001C34.12 8.10001 34.24 8.08001 34.38 8.08001C36.532 8.07887 38.6277 8.76787 40.3592 10.0458C42.0907 11.3237 43.3668 13.1232 44 15.18V15.18Z" fill="#1E1E1E"/>
</svg>
