<svg width="48" height="48" viewBox="0 0 48 48" fill="none" xmlns="http://www.w3.org/2000/svg">
<path d="M23.9998 38C25.7198 38 27.1798 39.08 27.7398 40.58C28.8398 40.34 29.8998 40 30.9198 39.54L27.3998 31.24C26.3598 31.74 25.2198 32 23.9998 32C22.7798 32 21.6398 31.74 20.5998 31.24L17.0798 39.54C18.0998 40 19.1598 40.34 20.2598 40.58C20.8198 39.08 22.2798 38 23.9998 38M36.4998 35.52C35.9998 34.84 35.6198 34 35.6198 33C35.6198 30.82 37.4198 29 39.6198 29L40.2398 29.06C40.7398 27.46 40.9998 25.76 40.9998 24C40.9998 22.24 40.7398 20.54 40.2398 19H39.6198C37.3998 19 35.6198 17.22 35.6198 15C35.6198 14 35.9398 13.18 36.4998 12.48C34.163 9.94086 31.1069 8.17553 27.7398 7.42C27.1798 8.92 25.7198 10 23.9998 10C22.2798 10 20.8198 8.92 20.2598 7.42C16.8928 8.17553 13.8366 9.94086 11.4998 12.48C12.0598 13.18 12.3998 14.06 12.3998 15C12.3998 16.0609 11.9784 17.0783 11.2282 17.8284C10.4781 18.5786 9.46068 19 8.39981 19H7.75981C7.25981 20.56 6.99981 22.24 6.99981 24C6.99981 25.78 7.27981 27.48 7.77981 29.1L8.39981 29C10.6198 29 12.3998 30.84 12.3998 33C12.3998 34 12.0798 34.86 11.5198 35.54C12.1598 36.24 12.8798 36.88 13.6198 37.46L17.4198 28.54C16.5198 27.24 15.9998 25.68 15.9998 24C15.9998 21.8783 16.8427 19.8434 18.343 18.3431C19.8432 16.8429 21.8781 16 23.9998 16C26.1215 16 28.1564 16.8429 29.6567 18.3431C31.157 19.8434 31.9998 21.8783 31.9998 24C31.9998 25.68 31.4798 27.24 30.5798 28.54L34.3798 37.46C35.1398 36.88 35.8398 36.22 36.4998 35.52M23.9998 46C21.9998 46 20.3198 44.52 19.9998 42.58C18.7287 42.3075 17.4889 41.9054 16.2998 41.38L14.3398 46H9.99981L12.8198 39.36C11.7566 38.5998 10.7837 37.7208 9.91981 36.74C9.43981 36.94 8.93981 37 8.39981 37C7.33895 37 6.32153 36.5786 5.57139 35.8284C4.82124 35.0783 4.39981 34.0609 4.39981 33C4.39981 31.76 4.99981 30.64 5.93981 29.9C4.69261 26.0871 4.68561 21.9771 5.91981 18.16C5.26635 17.6437 4.78975 16.9368 4.55612 16.1375C4.32249 15.3381 4.34341 14.4858 4.61599 13.6989C4.88856 12.912 5.39927 12.2293 6.07728 11.7457C6.7553 11.2621 7.567 11.0015 8.39981 11C8.91981 11 9.41981 11.12 9.85981 11.3C12.5265 8.30914 16.0794 6.2489 19.9998 5.42C20.3198 3.48 21.9998 2 23.9998 2C25.9998 2 27.6798 3.48 27.9998 5.42C31.9998 6.26 35.4798 8.36 38.1198 11.28C38.5798 11.1 39.0798 11 39.6198 11C40.6807 11 41.6981 11.4214 42.4482 12.1716C43.1984 12.9217 43.6198 13.9391 43.6198 15C43.6177 15.6058 43.4779 16.2033 43.2112 16.7472C42.9444 17.2912 42.5575 17.7674 42.0798 18.14C42.6798 20 42.9998 22 42.9998 24C42.9998 26 42.6798 28 42.0798 29.86C42.9998 30.6 43.6198 31.74 43.6198 33C43.6198 35.24 41.8398 37 39.6198 37C39.0798 37 38.5798 36.92 38.0998 36.72C37.2198 37.7 36.2398 38.58 35.1798 39.36L37.9998 46H33.6598L31.6998 41.38C30.4998 41.9 29.2598 42.32 27.9998 42.58C27.6798 44.52 25.9998 46 23.9998 46V46Z" fill="#1E1E1E"/>
</svg>
