<svg width="24" height="24" viewBox="0 0 24 24" fill="none" xmlns="http://www.w3.org/2000/svg">
<path d="M12 4C7.584 4 4 7.584 4 12C4 16.416 7.584 20 12 20C16.416 20 20 16.416 20 12C20 7.584 16.416 4 12 4ZM12 7.2C13.544 7.2 14.8 8.456 14.8 10C14.8 11.544 13.544 12.8 12 12.8C10.456 12.8 9.2 11.544 9.2 10C9.2 8.456 10.456 7.2 12 7.2ZM12 18.4C10.376 18.4 8.456 17.744 7.088 16.096C8.48928 14.9966 10.2189 14.399 12 14.399C13.7811 14.399 15.5107 14.9966 16.912 16.096C15.544 17.744 13.624 18.4 12 18.4Z" fill="#ACB1E7"/>
</svg>
