<svg width="24" height="24" viewBox="0 0 24 24" fill="none" xmlns="http://www.w3.org/2000/svg">
<path d="M4.75 5C4.28587 5 3.84075 5.18437 3.51256 5.51256C3.18437 5.84075 3 6.28587 3 6.75V10.25C3.46413 10.25 3.90925 10.4344 4.23744 10.7626C4.56563 11.0908 4.75 11.5359 4.75 12C4.75 12.4641 4.56563 12.9092 4.23744 13.2374C3.90925 13.5656 3.46413 13.75 3 13.75V17.25C3 17.7141 3.18437 18.1592 3.51256 18.4874C3.84075 18.8156 4.28587 19 4.75 19H18.75C19.2141 19 19.6592 18.8156 19.9874 18.4874C20.3156 18.1592 20.5 17.7141 20.5 17.25V13.75C20.0359 13.75 19.5908 13.5656 19.2626 13.2374C18.9344 12.9092 18.75 12.4641 18.75 12C18.75 11.5359 18.9344 11.0908 19.2626 10.7626C19.5908 10.4344 20.0359 10.25 20.5 10.25V6.75C20.5 6.28587 20.3156 5.84075 19.9874 5.51256C19.6592 5.18437 19.2141 5 18.75 5H4.75ZM14.8125 7.625L16.125 8.9375L8.6875 16.375L7.375 15.0625L14.8125 7.625ZM8.95875 7.66C9.81625 7.66 10.5075 8.35125 10.5075 9.20875C10.5075 9.6195 10.3443 10.0134 10.0539 10.3039C9.76343 10.5943 9.3695 10.7575 8.95875 10.7575C8.10125 10.7575 7.41 10.0663 7.41 9.20875C7.41 8.798 7.57317 8.40407 7.86362 8.11362C8.15407 7.82317 8.548 7.66 8.95875 7.66M14.5412 13.2425C15.3987 13.2425 16.09 13.9337 16.09 14.7912C16.09 15.202 15.9268 15.5959 15.6364 15.8864C15.3459 16.1768 14.952 16.34 14.5412 16.34C13.6837 16.34 12.9925 15.6487 12.9925 14.7912C12.9925 14.3805 13.1557 13.9866 13.4461 13.6961C13.7366 13.4057 14.1305 13.2425 14.5412 13.2425V13.2425Z" fill="#ACB1E7"/>
</svg>
