<svg width="24" height="24" viewBox="0 0 24 24" fill="none" xmlns="http://www.w3.org/2000/svg">
<path d="M20 9.37498C20 11.6062 18.6889 13.8958 16.1037 16.1854C14.9298 17.2242 13.6516 18.1428 12.2889 18.927C12.2004 18.9749 12.101 19 12 19C11.899 19 11.7996 18.9749 11.7111 18.927C11.3926 18.752 4 14.6177 4 9.37498C4 8.45675 4.2935 7.56179 4.83892 6.81689C5.38435 6.07198 6.15405 5.51488 7.03899 5.22451C7.92393 4.93414 8.87925 4.92522 9.76963 5.199C10.66 5.47279 11.4403 6.01541 12 6.74999C12.5597 6.01541 13.34 5.47279 14.2304 5.199C15.1207 4.92522 16.0761 4.93414 16.961 5.22451C17.846 5.51488 18.6157 6.07198 19.1611 6.81689C19.7065 7.56179 20 8.45675 20 9.37498Z" fill="#ACB1E7"/>
</svg>
