<svg width="48" height="48" viewBox="0 0 48 48" fill="none" xmlns="http://www.w3.org/2000/svg">
<path d="M38 14H22V28H6V10H2V40H6V34H42V40H46V22C46 19.8783 45.1571 17.8434 43.6569 16.3431C42.1566 14.8429 40.1217 14 38 14ZM14 26C15.5913 26 17.1174 25.3679 18.2426 24.2426C19.3679 23.1174 20 21.5913 20 20C20 18.4087 19.3679 16.8826 18.2426 15.7574C17.1174 14.6321 15.5913 14 14 14C12.4087 14 10.8826 14.6321 9.75736 15.7574C8.63214 16.8826 8 18.4087 8 20C8 21.5913 8.63214 23.1174 9.75736 24.2426C10.8826 25.3679 12.4087 26 14 26V26Z" fill="#1E1E1E"/>
</svg>
