<svg width="24" height="24" viewBox="0 0 24 24" fill="none" xmlns="http://www.w3.org/2000/svg">
<path d="M6.48279 7.56533L4 5.0833L5.0833 4L7.56533 6.48279H19.2344C19.3537 6.48278 19.4714 6.51067 19.578 6.56422C19.6846 6.61778 19.7773 6.69552 19.8485 6.79124C19.9198 6.88696 19.9677 6.99802 19.9884 7.11553C20.0091 7.23305 20.002 7.35379 19.9678 7.4681L18.1304 13.5928C18.0831 13.7505 17.9862 13.8889 17.8541 13.9872C17.722 14.0855 17.5617 14.1386 17.397 14.1386H8.01396V15.6698H16.4354V17.201H7.24837C7.04533 17.201 6.8506 17.1203 6.70702 16.9767C6.56345 16.8332 6.48279 16.6384 6.48279 16.4354V7.56533ZM7.63117 20.2633C7.3266 20.2633 7.0345 20.1423 6.81914 19.927C6.60378 19.7116 6.48279 19.4195 6.48279 19.1149C6.48279 18.8104 6.60378 18.5183 6.81914 18.3029C7.0345 18.0875 7.3266 17.9666 7.63117 17.9666C7.93573 17.9666 8.22783 18.0875 8.44319 18.3029C8.65855 18.5183 8.77954 18.8104 8.77954 19.1149C8.77954 19.4195 8.65855 19.7116 8.44319 19.927C8.22783 20.1423 7.93573 20.2633 7.63117 20.2633ZM16.8182 20.2633C16.5136 20.2633 16.2215 20.1423 16.0062 19.927C15.7908 19.7116 15.6698 19.4195 15.6698 19.1149C15.6698 18.8104 15.7908 18.5183 16.0062 18.3029C16.2215 18.0875 16.5136 17.9666 16.8182 17.9666C17.1227 17.9666 17.4148 18.0875 17.6302 18.3029C17.8456 18.5183 17.9666 18.8104 17.9666 19.1149C17.9666 19.4195 17.8456 19.7116 17.6302 19.927C17.4148 20.1423 17.1227 20.2633 16.8182 20.2633Z" fill="#ACB1E7"/>
</svg>
